<?xml version="1.0" standalone="no"?><!-- Generator: Gravit.io --><svg xmlns="http://www.w3.org/2000/svg" xmlns:xlink="http://www.w3.org/1999/xlink" style="isolation:isolate" viewBox="205 148.06 32 32" width="32" height="32"><g id="right-mark-color"><g id="Grupo"><g id="Grupo"><path d=" M 232.314 152.746 C 229.292 149.724 225.274 148.06 221 148.06 C 216.726 148.06 212.708 149.724 209.686 152.746 C 206.664 155.768 205 159.786 205 164.06 C 205 168.334 206.664 172.352 209.686 175.374 C 212.708 178.396 216.726 180.06 221 180.06 C 225.274 180.06 229.292 178.396 232.314 175.374 C 235.336 172.352 237 168.334 237 164.06 C 237 159.786 235.336 155.768 232.314 152.746 Z  M 221 178.185 C 213.211 178.185 206.875 171.849 206.875 164.06 C 206.875 156.271 213.211 149.935 221 149.935 C 228.789 149.935 235.125 156.271 235.125 164.06 C 235.125 171.849 228.789 178.185 221 178.185 Z " fill="rgb(32,42,59)"/></g></g><g id="Grupo"><g id="Grupo"><path d=" M 228.644 158.926 C 228.278 158.56 227.684 158.56 227.318 158.926 L 219.04 167.205 L 214.682 162.847 C 214.316 162.481 213.722 162.481 213.356 162.847 C 212.99 163.213 212.99 163.807 213.356 164.173 L 218.377 169.194 C 218.56 169.377 218.8 169.468 219.04 169.468 C 219.279 169.468 219.519 169.377 219.702 169.194 L 228.644 160.252 C 229.01 159.886 229.01 159.292 228.644 158.926 Z " fill="rgb(32,42,59)"/></g></g></g></svg>