<?xml version="1.0" standalone="no"?><!-- Generator: Gravit.io --><svg xmlns="http://www.w3.org/2000/svg" xmlns:xlink="http://www.w3.org/1999/xlink" style="isolation:isolate" viewBox="23 195.6 16 12.8" width="16" height="12.8"><g id="credit-card"><g id="Grupo"><g id="Grupo"><path d=" M 38.608 195.992 C 38.347 195.731 38.033 195.6 37.667 195.6 L 24.333 195.6 C 23.967 195.6 23.653 195.731 23.392 195.992 C 23.13 196.253 23 196.567 23 196.933 L 23 207.067 C 23 207.433 23.13 207.747 23.392 208.008 C 23.653 208.269 23.967 208.4 24.333 208.4 L 37.667 208.4 C 38.033 208.4 38.347 208.269 38.608 208.008 C 38.869 207.747 39 207.433 39 207.067 L 39 196.933 C 39 196.567 38.869 196.253 38.608 195.992 Z  M 37.933 207.067 C 37.933 207.139 37.907 207.201 37.854 207.254 C 37.801 207.307 37.739 207.333 37.667 207.333 L 24.333 207.333 C 24.261 207.333 24.199 207.307 24.146 207.254 C 24.093 207.201 24.067 207.139 24.067 207.067 L 24.067 202 L 37.933 202 L 37.933 207.067 L 37.933 207.067 Z  M 37.933 198.8 L 24.067 198.8 L 24.067 196.933 C 24.067 196.861 24.093 196.799 24.146 196.746 C 24.199 196.693 24.261 196.667 24.333 196.667 L 37.667 196.667 C 37.739 196.667 37.801 196.693 37.854 196.746 C 37.907 196.799 37.933 196.861 37.933 196.933 L 37.933 198.8 L 37.933 198.8 Z " fill="rgb(255,255,255)"/><rect x="25.133" y="205.2" width="2.133" height="1.067" transform="matrix(1,0,0,1,0,0)" fill="rgb(255,255,255)"/><rect x="28.333" y="205.2" width="3.2" height="1.067" transform="matrix(1,0,0,1,0,0)" fill="rgb(255,255,255)"/></g></g></g></svg>