<?xml version="1.0" standalone="no"?><!-- Generator: Gravit.io --><svg xmlns="http://www.w3.org/2000/svg" xmlns:xlink="http://www.w3.org/1999/xlink" style="isolation:isolate" viewBox="1221 215.5 24 24" width="24" height="24"><g id="pencil"><g id="Grupo"><g id="Grupo"><path d=" M 1233 215.5 C 1226.373 215.5 1221 220.873 1221 227.5 C 1221 234.127 1226.373 239.5 1233 239.5 C 1239.627 239.5 1245 234.127 1245 227.5 C 1245 220.873 1239.627 215.5 1233 215.5 Z  M 1238.704 224.136 L 1237.564 225.275 L 1235.244 222.955 L 1234.364 223.836 L 1236.684 226.156 L 1230.994 231.846 L 1228.674 229.526 L 1227.794 230.406 L 1230.114 232.726 L 1229.546 233.293 L 1229.536 233.282 C 1229.473 233.386 1229.371 233.461 1229.249 233.488 L 1227.086 233.971 C 1227.053 233.978 1227.02 233.982 1226.988 233.982 C 1226.87 233.982 1226.755 233.935 1226.67 233.85 C 1226.561 233.741 1226.515 233.584 1226.549 233.434 L 1227.031 231.271 C 1227.058 231.149 1227.134 231.047 1227.237 230.984 L 1227.226 230.973 L 1236.384 221.815 C 1236.518 221.681 1236.736 221.681 1236.871 221.816 L 1238.704 223.649 C 1238.839 223.783 1238.839 224.001 1238.704 224.136 Z " fill="rgb(54,101,255)"/></g></g></g></svg>