<?xml version="1.0" standalone="no"?><!-- Generator: Gravit.io --><svg xmlns="http://www.w3.org/2000/svg" xmlns:xlink="http://www.w3.org/1999/xlink" style="isolation:isolate" viewBox="20.5 458 16 16" width="16" height="16"><g id="icon(1)"><g id="Grupo"><path d=" M 30.061 467.166 L 27.335 464.44 C 28.1 463.868 29.188 463.922 29.884 464.617 C 30.578 465.313 30.633 466.4 30.061 467.166 Z  M 23.362 468.372 L 22.177 469.557 L 24.944 472.324 L 26.129 471.138 L 23.362 468.372 Z  M 33.638 463.629 L 34.824 462.444 L 32.057 459.677 L 30.871 460.863 L 33.638 463.629 Z  M 20.992 468.371 L 21.782 469.162 L 23.362 467.582 L 26.919 471.138 L 25.339 472.719 L 26.129 473.509 C 26.784 474.164 27.845 474.164 28.5 473.509 L 32.056 469.953 L 30.06 467.957 C 29.073 468.744 27.636 468.693 26.722 467.779 C 25.807 466.866 25.756 465.428 26.544 464.44 L 24.548 462.444 L 20.992 466 C 20.336 466.655 20.336 467.716 20.992 468.371 Z  M 27.117 467.384 C 27.812 468.078 28.9 468.133 29.666 467.561 L 26.94 464.835 C 26.368 465.601 26.422 466.688 27.117 467.384 Z  M 28.5 458.492 L 24.944 462.049 L 26.94 464.044 C 27.927 463.257 29.364 463.308 30.279 464.222 C 31.193 465.136 31.244 466.573 30.457 467.561 L 32.452 469.557 L 36.009 466 C 36.664 465.345 36.664 464.284 36.009 463.629 L 35.219 462.839 L 33.638 464.419 L 30.081 460.863 L 31.662 459.282 L 30.871 458.492 C 30.216 457.836 29.155 457.836 28.5 458.492 Z " fill="rgb(255,255,255)"/></g></g></svg>