<?xml version="1.0" standalone="no"?><!-- Generator: Gravit.io --><svg xmlns="http://www.w3.org/2000/svg" xmlns:xlink="http://www.w3.org/1999/xlink" style="isolation:isolate" viewBox="1256 215.5 24 24" width="24" height="24"><g id="icon"><g id="Grupo"><g id="c142_x"><path d=" M 1267.998 215.5 C 1261.372 215.5 1256 220.873 1256 227.5 C 1256 234.127 1261.372 239.5 1267.998 239.5 C 1274.628 239.5 1280 234.126 1280 227.5 C 1280 220.873 1274.628 215.5 1267.998 215.5 Z  M 1273.157 230.75 L 1271.246 232.658 C 1271.246 232.658 1268.223 229.414 1267.997 229.414 C 1267.775 229.414 1264.75 232.658 1264.75 232.658 L 1262.838 230.75 C 1262.838 230.75 1266.086 227.77 1266.086 227.505 C 1266.086 227.235 1262.838 224.255 1262.838 224.255 L 1264.75 222.342 C 1264.75 222.342 1267.8 225.587 1267.997 225.587 C 1268.196 225.587 1271.246 222.342 1271.246 222.342 L 1273.157 224.255 C 1273.157 224.255 1269.909 227.278 1269.909 227.505 C 1269.909 227.72 1273.157 230.75 1273.157 230.75 Z " fill="rgb(255,29,29)"/></g></g></g></svg>