<?xml version="1.0" standalone="no"?><!-- Generator: Gravit.io --><svg xmlns="http://www.w3.org/2000/svg" xmlns:xlink="http://www.w3.org/1999/xlink" style="isolation:isolate" viewBox="23 144 16 16" width="16" height="16"><g id="soccer-ball"><g id="Grupo"><g id="Grupo"><path d=" M 31 144 C 26.589 144 23 147.589 23 152 C 23 156.411 26.589 160 31 160 C 35.411 160 39 156.411 39 152 C 39 147.589 35.411 144 31 144 Z  M 31.508 146.599 L 33.565 145.493 C 34.704 145.944 35.698 146.683 36.454 147.623 L 35.964 149.885 L 34.395 150.654 L 31.508 148.551 L 31.508 146.599 Z  M 28.452 145.487 L 30.509 146.597 L 30.509 148.551 L 27.624 150.654 L 26.047 149.884 L 25.557 147.608 C 26.315 146.67 27.311 145.935 28.452 145.487 Z  M 25.23 155.954 C 24.577 155.004 24.152 153.887 24.035 152.68 L 25.728 150.841 L 27.272 151.596 L 28.435 154.899 L 27.452 156.077 L 25.23 155.954 Z  M 32.783 158.761 C 32.212 158.912 31.617 159 31 159 C 30.254 159 29.536 158.88 28.861 158.663 L 28.232 156.705 L 29.235 155.5 L 32.769 155.5 L 33.754 156.666 L 32.783 158.761 Z  M 34.534 156.043 L 33.567 154.898 L 34.746 151.596 L 36.283 150.843 L 37.966 152.681 C 37.865 153.722 37.53 154.693 37.021 155.552 L 34.534 156.043 Z " fill="rgb(255,255,255)"/></g></g></g></svg>