<?xml version="1.0" standalone="no"?><!-- Generator: Gravit.io --><svg xmlns="http://www.w3.org/2000/svg" xmlns:xlink="http://www.w3.org/1999/xlink" style="isolation:isolate" viewBox="20.5 509 16 16" width="16" height="16"><g id="ticket"><g id="Grupo"><g id="Grupo"><path d=" M 36.149 514.308 L 34.952 513.121 C 34.598 513.476 34.167 513.653 33.661 513.653 C 33.154 513.653 32.724 513.476 32.37 513.121 C 32.015 512.767 31.838 512.336 31.838 511.83 C 31.838 511.323 32.015 510.893 32.37 510.538 L 31.183 509.351 C 30.948 509.117 30.662 509 30.323 509 C 29.985 509 29.698 509.117 29.464 509.351 L 20.851 517.954 C 20.617 518.189 20.5 518.475 20.5 518.814 C 20.5 519.152 20.617 519.438 20.851 519.673 L 22.038 520.869 C 22.393 520.515 22.823 520.338 23.33 520.338 C 23.836 520.338 24.267 520.515 24.621 520.869 C 24.976 521.224 25.153 521.654 25.153 522.161 C 25.153 522.667 24.976 523.097 24.621 523.452 L 25.818 524.649 C 26.052 524.883 26.338 525 26.677 525 C 27.016 525 27.302 524.883 27.536 524.649 L 36.149 516.027 C 36.383 515.792 36.5 515.506 36.5 515.167 C 36.5 514.829 36.383 514.542 36.149 514.308 Z  M 33.575 516.207 L 27.707 522.075 C 27.593 522.189 27.451 522.246 27.28 522.246 C 27.109 522.246 26.967 522.189 26.853 522.075 L 23.415 518.638 C 23.295 518.518 23.235 518.375 23.235 518.211 C 23.235 518.046 23.295 517.904 23.415 517.783 L 29.283 511.915 C 29.397 511.801 29.54 511.744 29.711 511.744 C 29.882 511.744 30.024 511.801 30.138 511.915 L 33.575 515.352 C 33.696 515.473 33.756 515.615 33.756 515.78 C 33.756 515.944 33.696 516.087 33.575 516.207 Z " fill="rgb(255,255,255)"/><path d=" M 29.711 512.779 L 32.712 515.78 L 27.28 521.211 L 24.28 518.211 L 29.711 512.779 Z " fill="rgb(255,255,255)"/></g></g></g></svg>